<svg xmlns="http://www.w3.org/2000/svg" viewBox="0 0 1080 1080"><defs /><path d="M1050 444c-56 0-100-35-110-93 50 0 80-9 103-53-64 24-113 1-148-54-5-7-7-12-7-13l8-3c44-13 67-40 66-86l-7 7a91 91 0 0 1-36 30c-35 20-90-1-122-28 33-29 56-65 48-105-2-10-1-9-5 1-10 26-22 44-40 58-20 15-47 20-73 18l-22-4 4-7c26-30 35-67 25-104-3-11-2-10-5 1-11 64-56 107-117 109 15-21 27-50 24-78-26 34-65 71-104 93-11 6-10 6-19 15-16 15-32 16-52 21-14 3-15 3-15 2-1-2 6-15 12-23l3-5c-21 4-65 26-92 37-11 6-15 9-22 18-8 10-12 22-12 34-1 11-1 10 6 7 7-4 7-4 8 2 1 13 7 25 16 34 28 25 2 3 12-28 3-11 12-24 11-12-2 14 7 32 15 44 2 3 2 2 2-1-3-10 0-25 7-38 4-8 5-9 6-8 2 0 2 0 1 3-2 14 4 30 15 39 0-12 6-23 17-34 5-5 7-6 8-5 1 0 2 1 2 6-1 10 5 23 10 30 1 1 1 1 2-4l2-9c2-5 9-14 12-17 2-2 3-2 6-2 3 1 3 0 4 4 0 4 4 13 8 18l10 9-1-5c-1-6-2-17 0-20 1-2 12 3 19 8 5 4 6 5 9 10 4 7 4 17 3 23h-6a257 257 0 0 0-97 4c-44 16-75 55-128 42-8-2-8-1 0 2 66 26 76-29 39 40l-4 8c46-66 101-88 177-70 8 1 8 2-3 10a97 97 0 0 1-21 15c-4 0-16-8-20-13-3-4-2 1 1 7l5 8c5 6 5 6 3 7-5 2-19-7-23-17-3-5-3-5-5 3s3 19 7 26c-4 9-26-16-29-23 0 10 3 19 11 30v3c-2 1-16-10-25-19l-15-19c-7 19 2 34 14 49l-9 3c0 5 4 18 9 21 6 5 16 9 31 12h6c-5-13 1-20 16-26 13-6 25-9 68-16l47-10c8-3 8-7 13-14 4-8 7-12 13-18 35-29 84-24 113 8 60 87-47 142-129 139a207 207 0 0 1-101-22c14 31 52 53 90 68 0 2-27 12-46 18-67 20 82 201 154 171 1 0-1 15-5 26-5 11-14 25-21 31-3 2-2 2 3 2 74-8 133-73 168-139 1 0 9 9 14 17 32 47 5 69 35 40 33-38 32-74 18-130l9 3c29 9 56 11 86 6 7-2 13 0 5-5a88 88 0 0 1-44-90c29-1 65-10 85-29h-4ZM611 158c-13 14-33 29-53 29-10 1-28-4-29-7 8-20 21-18 49-19 13-1 22-2 30-5 7-3 8-3 3 2Z" fill="#10b981" /><path d="M675 802c-36-1-42-39-17-58-57-19-87-51-122-93v173l-31 62-63 31H311l-19-18V367l6-6c-34-13-24-66 16-60 11 2 25 4 35 1-9-8-19-20-24-32-29-12-23-46-16-66H73l25 100v676l-25 100h489l175-175V786c-19 8-41 15-62 16Z" fill="#10b981" /></svg>
